# xmcd CD database file
#
# Track frame offsets:
#	182
#	9532
#	28175
#	45240
#	55867
#	71945
#	92882
#	109622
#	124935
#	137762
#	163647
#	189212
#
# Disc length: 2666 seconds
#
# Revision: 0
# Processed by: cddbd v1.4PL0 Copyright (c) Steve Scherf et al.
# Submitted via: CDex 1.40Release
#
DISCID=9f0a680c
DTITLE=Country Western Mix - Country Western Mix
DYEAR=1900
DGENRE=Country
TTITLE0=Bless your beautiful hide
TTITLE1=Is it really me?
TTITLE2=Oh what a beautiful morning
TTITLE3=I say hello
TTITLE4=I talk to the trees
TTITLE5=76 trombones
TTITLE6=I will always love you
TTITLE7=Anything you can do
TTITLE8=Just blew in from the windy city
TTITLE9=Indian love call
TTITLE10=Ol man river
TTITLE11=Its a grand night for singing
EXTD=ID3G: 2
EXTT0=
EXTT1=
EXTT2=
EXTT3=
EXTT4=
EXTT5=
EXTT6=
EXTT7=
EXTT8=
EXTT9=
EXTT10=
EXTT11=
PLAYORDER=
